<?xml version="1.0" encoding="UTF-8"?>
<svg width="36px" height="36px" viewBox="0 0 36 36" version="1.1" xmlns="http://www.w3.org/2000/svg" xmlns:xlink="http://www.w3.org/1999/xlink">
    <!-- Generator: Sketch 46.2 (44496) - http://www.bohemiancoding.com/sketch -->
    <title>coffee</title>
    <desc>Created with Sketch.</desc>
    <defs></defs>
    <g id="Page-1" stroke="none" stroke-width="1" fill="none" fill-rule="evenodd">
        <g id="coffee">
            <g id="Icône-background" fill="#FFFFFF" fill-opacity="0.95">
                <rect x="0" y="0" width="36" height="36" rx="10"></rect>
            </g>
            <g id="Group" transform="translate(10.000000, 15.666667)" stroke-width="2" stroke="#D6AC67">
                <polyline id="Plate" stroke-linecap="round" points="0 9.33333333 1.33333333 11.3333333 14.6666667 11.3333333 16 9.33333333"></polyline>
                <path d="M3,1.33333333 L3,6.33333333 C3,7.43790283 3.8954305,8.33333333 5,8.33333333 L10,8.33333333 C11.1045695,8.33333333 12,7.43790283 12,6.33333333 L12,1.33333333 L3,1.33333333 Z" id="Cup"></path>
                <path d="M12,1.33333333 L12,5.33333333 L14,5.33333333 C15.1045695,5.33333333 16,4.43790283 16,3.33333333 C16,2.22876383 15.1045695,1.33333333 14,1.33333333 L12,1.33333333 Z" id="Handle"></path>
            </g>
            <g id="Icône-border">
                <rect stroke="#D6AC67" stroke-width="3" x="3.5" y="3.5" width="29" height="29" rx="10"></rect>
                <rect stroke="#FFFFFF" stroke-width="2" x="1" y="1" width="34" height="34" rx="12"></rect>
            </g>
        </g>
    </g>
</svg>