<?xml version="1.0" encoding="UTF-8"?>
<svg width="48px" height="48px" viewBox="0 0 48 48" version="1.1" xmlns="http://www.w3.org/2000/svg" xmlns:xlink="http://www.w3.org/1999/xlink">
    <!-- Generator: Sketch 46.2 (44496) - http://www.bohemiancoding.com/sketch -->
    <title>gravel</title>
    <desc>Created with Sketch.</desc>
    <defs></defs>
    <g id="Page-1" stroke="none" stroke-width="1" fill="none" fill-rule="evenodd">
        <g id="gravel">
            <path d="M25.7878327,6.44991809 L43.6565916,42.1038975 L43.6565916,42.1038975 C44.1514954,43.0913913 43.7521722,44.293112 42.7646784,44.7880157 C42.4865319,44.9274149 42.1796991,45 41.8685759,45 L6.13105817,45 L6.13105817,45 C5.02648867,45 4.13105817,44.1045695 4.13105817,43 C4.13105817,42.6888768 4.20364331,42.382044 4.34304245,42.1038975 L22.2118013,6.44991809 L22.2118013,6.44991809 C22.7067051,5.46242427 23.9084258,5.06310114 24.8959196,5.55800491 C25.281647,5.75132049 25.5945172,6.06419071 25.7878327,6.44991809 Z" id="Triangle" fill-opacity="0.95" fill="#FFFFFF"></path>
            <g id="Gravel" transform="translate(10.000000, 26.000000)" fill="#D6AC67">
                <polygon id="Eject" points="20 16 5 16 7 15"></polygon>
                <polygon id="Eject" points="20 16.5 6 11 6 10"></polygon>
                <polygon id="Eject" points="20 16.5 10 7 10 5"></polygon>
                <g id="Gravillon" transform="translate(7.000000, 0.000000)">
                    <polygon points="1 -8.8817842e-15 0 1 0 2 2 2 2 -8.8817842e-15"></polygon>
                </g>
                <g id="Gravillon" transform="translate(8.000000, 4.000000) rotate(90.000000) translate(-8.000000, -4.000000) translate(7.000000, 3.000000)">
                    <polygon points="1 -8.8817842e-15 0 1 0 2 2 2 2 -8.8817842e-15"></polygon>
                </g>
                <g id="Gravillon" transform="translate(8.000000, 8.000000) rotate(270.000000) translate(-8.000000, -8.000000) translate(7.000000, 7.000000)">
                    <polygon points="1 -8.8817842e-15 0 1 0 2 2 2 2 -8.8817842e-15"></polygon>
                </g>
                <g id="Gravillon" transform="translate(4.000000, 8.000000) rotate(180.000000) translate(-4.000000, -8.000000) translate(3.000000, 7.000000)">
                    <polygon points="1 -8.8817842e-15 0 1 0 2 2 2 2 -8.8817842e-15"></polygon>
                </g>
                <g id="Gravillon" transform="translate(4.000000, 13.000000) rotate(90.000000) translate(-4.000000, -13.000000) translate(3.000000, 12.000000)">
                    <polygon points="1 -8.8817842e-15 0 1 0 2 2 2 2 -8.8817842e-15"></polygon>
                </g>
                <g id="Gravillon" transform="translate(0.000000, 14.000000)">
                    <polygon points="1 -8.8817842e-15 0 1 0 2 2 2 2 -8.8817842e-15"></polygon>
                </g>
            </g>
            <g id="Bike" transform="translate(23.000000, 19.000000)" stroke="#D6AC67" stroke-width="2">
                <path d="M4,16.9379883 L4,7.35253906 C5.46907552,5.54752604 6.46907552,4.64501953 7,4.64501953 C7.53092448,4.64501953 8.53092448,5.54752604 10,7.35253906 L10,16.9379883" id="Fork" stroke-linecap="round"></path>
                <path d="M7,9 L7,22.9384766" id="Wheel" stroke-linecap="round"></path>
                <path d="M7,1 L7,5" id="Steering-tube" stroke-linecap="round"></path>
                <path d="M1,5 L12,5 L12,3.0326933 C12,1.93067518 11.1085477,1.03630506 10.0065354,1.03270398 L3.00653542,1.00982988 L3,1.0098192 C1.8954305,1.0098192 1,1.9052497 1,3.0098192 L1,5 Z" id="Handlebar"></path>
            </g>
            <path d="M26.6944679,4.50644973 L44.8865908,41.6813321 L44.8865908,41.6813321 C45.614871,43.1695438 44.9988248,44.9663654 43.5106131,45.6946456 C43.1000585,45.8955571 42.6490235,46 42.1919452,46 L5.80801779,46 L5.80801779,46 C4.15116354,46 2.80801779,44.6568542 2.80801779,43 C2.80801779,42.5429287 2.91245751,42.0919005 3.11336307,41.6813507 L21.3051676,4.50646835 L21.3051676,4.50646835 C22.0334375,3.01825164 23.8302549,2.40219302 25.3184716,3.13046291 C25.9172838,3.42349608 26.4014306,3.90763959 26.6944679,4.50644973 Z" id="Triangle" stroke="#FFFFFF" stroke-width="4"></path>
            <path d="M25.3530306,6.30602058 C25.2052192,5.99696302 24.9560687,5.74781422 24.6470102,5.6000049 C23.8996565,5.242578 23.0040549,5.55867611 22.646628,6.30602978 L5.40700865,42.3528214 C5.31037173,42.5548821 5.26021218,42.7760195 5.26021218,43 C5.26021218,43.8284271 5.93178506,44.5 6.76021218,44.5 L41.2397519,44.5 C41.4637359,44.5 41.6848766,44.4498389 41.8869398,44.3531991 C42.634291,43.9957672 42.9503831,43.1001634 42.5929511,42.3528122 L25.3530306,6.30602058 Z" id="Triangle" stroke="#D6AC67" stroke-width="3"></path>
        </g>
    </g>
</svg>